# xmcd
#
# Track frame offsets:
#	150
#	14532
#	28780
#	45745
#	61370
#	79000
#	97697
#	118335
#	133962
#	150830
#	161805
#	175692
#	188632
#	200007
#	212640
#	226152
#
# Disc length: 3211 seconds
#
# Revision: 2
# Processed by: cddbd v1.5.2PL0 Copyright (c) Steve Scherf et al.
# Submitted via: audiograbber 1.83.01
#
DISCID=d00c8910
DTITLE=MH1052 Monster Hits - Male Country Hits (MH)
DYEAR=2008
DGENRE=Karaoke
TTITLE0=Garth Brooks - Ain't Goin' Down 'Till The Sun Comes Up (MH)
TTITLE1=Garth Brooks - We Bury The Hatchet (MH)
TTITLE2=Aaron Tippin - I Got It Honest (MH)
TTITLE3=Neal McCoy - For A Change (MH)
TTITLE4=Garth Brooks - The Red Strokes (MH)
TTITLE5=Vince Gill - When Love Finds You (MH)
TTITLE6=Clay Walker - This Woman And This Man (MH)
TTITLE7=The Kentucky Headhunters - Walk Softly On This Heart Of Mine (MH)
TTITLE8=John Berry - Standing On The Edge Of Goodbye (MH)
TTITLE9=Vince Gill - Take Your Memory With You (MH)
TTITLE10=Tracy Lawrence - As Any Fool Can See (MH)
TTITLE11=Mark Chesnutt - Gonna Get A Life (MH)
TTITLE12=Marty Stuart - Hillbilly Rock (MH)
TTITLE13=John Anderson - I Fell In The water (MH)
TTITLE14=Doug Stone - Fourteen Minutes Old (MH)
TTITLE15=Shenandoah - Next To You, Next To Me (MH)
EXTD=
EXTT0=
EXTT1=
EXTT2=
EXTT3=
EXTT4=
EXTT5=
EXTT6=
EXTT7=
EXTT8=
EXTT9=
EXTT10=
EXTT11=
EXTT12=
EXTT13=
EXTT14=
EXTT15=
PLAYORDER=
